<svg xmlns="http://www.w3.org/2000/svg" viewBox="0 0 64 64">
  <defs>
    <linearGradient id="infinity-gradient" x1="0%" y1="0%" x2="100%" y2="100%">
      <stop offset="0%" stop-color="#22d3ee" />
      <stop offset="50%" stop-color="#a855f7" />
      <stop offset="100%" stop-color="#38bdf8" />
    </linearGradient>
  </defs>
  <rect width="64" height="64" rx="14" fill="#09090b" />
  <path
    d="M13 33c0-8 6-14 14-14 7 0 12 5 17 13 5-8 10-13 17-13 8 0 14 6 14 14s-6 14-14 14c-7 0-12-5-17-13-5 8-10 13-17 13-8 0-14-6-14-14zm14-8c-4.5 0-8 3.5-8 8s3.5 8 8 8c4.4 0 8.1-3.7 12.9-11-4.8-7.3-8.5-11-12.9-11zm34 0c-4.4 0-8.1 3.7-12.9 11 4.8 7.3 8.5 11 12.9 11 4.5 0 8-3.5 8-8s-3.5-8-8-8z"
    fill="url(#infinity-gradient)"
    transform="translate(-5 -1) scale(.86) translate(11 6)"
  />
</svg>
